<svg width="37" height="28" viewBox="0 0 37 28" fill="none" xmlns="http://www.w3.org/2000/svg">
	<path d="M34.3335 10.7556H3V5.81718C3 3.13627 5.2997 0.878662 8.03059 0.878662H29.3029C32.0338 0.878662 34.3335 3.13627 34.3335 5.81718V10.7556Z" fill="#34A853"/>
	<path d="M34.3335 15.3119H3V10.0633C3 7.2141 5.2997 4.8147 8.03059 4.8147H29.3029C32.0338 4.8147 34.3335 7.2141 34.3335 10.0633V15.3119Z" fill="#FBBC04"/>
	<path d="M34.3335 19.6862H3V14.4376C3 11.5884 5.2997 9.18896 8.03059 9.18896H29.3029C32.0338 9.18896 34.3335 11.5884 34.3335 14.4376V19.6862Z" fill="#EA4335"/>
	<path d="M3 12.0237L22.8874 16.5389C25.1767 17.1033 27.7521 16.5389 29.612 15.1279L34.3335 11.7415V22.3239C34.3335 25.0048 32.0443 27.1213 29.3259 27.1213H8.00761C5.28917 27.1213 3 25.0048 3 22.3239V12.0237Z" fill="url(#paint0_linear_22_1746)"/>
	<defs>
		<linearGradient id="paint0_linear_22_1746" x1="17.1734" y1="19.725" x2="0.975824" y2="38.6076" gradientUnits="userSpaceOnUse">
			<stop stop-color="#4285F4"/>
			<stop offset="1" stop-color="#1B74E8"/>
		</linearGradient>
	</defs>
</svg>
