<svg width="37" height="36" viewBox="0 0 37 36" fill="none" xmlns="http://www.w3.org/2000/svg">
<rect x="0.5" width="36" height="36" rx="18" fill="url(#paint0_linear_5741_46824)"/>
<path d="M24.3879 14.4375L16.4379 22.3875C16.3675 22.4585 16.2716 22.4985 16.1716 22.4985C16.0716 22.4985 15.9758 22.4585 15.9054 22.3875L11.8629 18.345C11.7919 18.2746 11.752 18.1788 11.752 18.0788C11.752 17.9788 11.7919 17.8829 11.8629 17.8125L12.3879 17.2875C12.4583 17.2165 12.5541 17.1766 12.6541 17.1766C12.7541 17.1766 12.85 17.2165 12.9204 17.2875L16.1679 20.535L23.3304 13.3725C23.4787 13.2287 23.7145 13.2287 23.8629 13.3725L24.3879 13.905C24.4589 13.9754 24.4988 14.0713 24.4988 14.1713C24.4988 14.2713 24.4589 14.3671 24.3879 14.4375Z" fill="#FFFEFE"/>
<defs>
<linearGradient id="paint0_linear_5741_46824" x1="24.6204" y1="16" x2="-8.56649" y2="39.4188" gradientUnits="userSpaceOnUse">
<stop stop-color="#001AFF"/>
<stop offset="1" stop-color="#4F95FF"/>
</linearGradient>
</defs>
</svg>
