<svg width="24" height="24" viewBox="0 0 24 24" fill="none" xmlns="http://www.w3.org/2000/svg">
<g clip-path="url(#clip0_6262_60436)">
<path d="M11 7H13V9H11V7ZM11 11H13V17H11V11ZM12 2C6.48 2 2 6.48 2 12C2 17.52 6.48 22 12 22C17.52 22 22 17.52 22 12C22 6.48 17.52 2 12 2ZM12 20C7.59 20 4 16.41 4 12C4 7.59 7.59 4 12 4C16.41 4 20 7.59 20 12C20 16.41 16.41 20 12 20Z" fill="url(#paint0_linear_6262_60436)"/>
</g>
<defs>
<linearGradient id="paint0_linear_6262_60436" x1="15.4002" y1="10.8889" x2="-3.03694" y2="23.8993" gradientUnits="userSpaceOnUse">
<stop stop-color="#001AFF"/>
<stop offset="1" stop-color="#4F95FF"/>
</linearGradient>
<clipPath id="clip0_6262_60436">
<rect width="24" height="24" fill="white"/>
</clipPath>
</defs>
</svg>
