<svg width="1550" height="1569" viewBox="0 0 1550 1569" fill="none" xmlns="http://www.w3.org/2000/svg">
<path fill-rule="evenodd" clip-rule="evenodd" d="M75.6267 0.38916L0.090332 0.38916L0.090332 51.0943C15.0304 62.3219 33.2274 72.1589 50.9391 78.5155C53.056 79.2755 59.5155 81.5842 65.2932 83.6452C114.606 101.242 137.565 115.178 170.971 147.791C198.878 175.037 215.631 199.136 231.919 235.467C250.336 276.546 273.863 307.864 308.717 337.693C339.539 364.072 355.421 373.027 406.159 392.633C444.969 407.63 470.085 424.024 502.771 455.695C521.858 474.189 536.622 492.562 547.596 511.476C550.692 516.812 563.008 541.098 563.008 541.867C563.008 542.693 576.514 569.458 579.682 574.912C603.349 615.648 649.906 659.568 692.723 681.549C703.146 686.9 708.077 689.005 730.667 697.742C766.425 711.573 784.171 721.244 806.098 738.851C816.439 747.154 819.255 747.953 811.141 740.282C789.545 719.864 773.129 709.403 730 688.57C705.374 676.675 696.437 671.463 681.29 660.166C657.304 642.275 628.564 611.685 611.018 585.368C598.355 566.374 594.729 558.768 578.235 516.596C562.367 476.028 546.917 452.599 513.781 418.853C488.902 393.518 470.681 380.376 439.123 365.01C400.303 346.108 392.481 341.853 379.165 332.388C348.244 310.413 315.398 274.592 296.935 242.712C290.203 231.088 283.742 216.182 274.327 190.553C258.368 147.11 243.136 123.523 210.464 91.6575C179.387 61.3479 160.098 47.3063 121.235 26.7027C103.662 17.3861 87.0216 7.72144 75.6267 0.38916ZM0.090332 245.038L0.090332 319.944C12.0818 325.423 30.4118 334.82 41.108 341.273C70.5123 359.011 85.4184 372.443 117.07 409.726C137.303 433.559 152.851 447.404 176.863 462.965C192.483 473.089 218.378 486.438 234.495 492.674C259.4 502.312 276.634 506.181 310.166 509.665C332.849 512.022 337.306 512.64 350.012 515.188C379.337 521.069 412.823 535.07 443.832 554.414C470.964 571.339 485.297 584.008 509.993 612.897C541.547 649.806 558.16 664.112 591.934 683.457C600.724 688.492 623.826 700.191 624.979 700.191C625.171 700.191 626.711 700.824 628.4 701.598C631.062 702.817 641.536 706.903 647.048 708.871C662.751 714.481 683.84 718.545 712.975 721.576C750.247 725.452 770.353 730.062 792.525 739.811C796.63 741.616 807.218 745.83 807.649 745.83C809.368 745.83 804.717 742.786 797.752 739.353C771.023 726.177 752.174 720.401 713.699 713.591C709.914 712.921 704.372 711.875 701.383 711.267C698.395 710.659 694.488 709.869 692.7 709.513C669.547 704.891 638.221 691.681 612.84 675.837C574.913 652.162 554.33 633.419 530.647 600.993C510.611 573.561 505.987 567.82 494.212 555.765C470.511 531.499 430.205 504.066 399.639 491.399C379.124 482.897 365.348 478.949 340.594 474.477C316.009 470.036 309.287 468.634 298.574 465.716C276.004 459.568 253.117 449.375 230.112 435.227C192.576 412.143 172.053 392.759 145.555 355.361C128.226 330.902 124 325.669 111.305 312.934C94.2787 295.854 79.49 284.965 52.6148 269.719C38.7055 261.829 15.6687 251.077 0.090332 245.038ZM0.090332 501.621L0.090332 572.966C10.7238 578.833 26.5267 588.585 39.212 597.359C57.6072 610.081 78.9046 623.401 80.8528 623.401C80.9832 623.401 83.8108 624.68 87.1376 626.244C115.333 639.498 154.521 649.584 190.144 652.755C211.945 654.695 227.861 653.754 259.091 648.675C276.753 645.802 288.372 644.408 300.081 643.755C316.423 642.844 338.132 644.008 352.91 646.587C404.918 655.665 437.034 668.164 474.293 693.827C503.538 713.969 508.928 717.341 523.765 724.767C556.234 741.018 602.841 752.555 642.701 754.208C658.771 754.874 678.919 753.231 701.021 749.452C733.438 743.909 764.226 742.84 786.501 746.486C795.91 748.025 799.557 747.999 796.729 746.411C795.001 745.442 785.507 743.389 777.453 742.244C774.066 741.762 769.339 741.06 766.948 740.683C764.558 740.305 755.429 739.803 746.663 739.567C731.188 739.149 724.586 739.437 694.501 741.838C655.94 744.914 624.973 741.024 584.743 728.049C544.37 715.029 524.938 703.945 482.757 669.883C443.98 638.57 406.353 621.23 353.635 610.378C333.788 606.294 302.127 604.711 280.825 606.738C244.739 610.172 223.981 610.174 202.452 606.745C165.253 600.821 127.078 587.671 99.1479 571.161C85.9255 563.345 76.3878 556.255 54.3797 537.884C32.666 519.758 18.4398 510.142 0.090332 501.621ZM0.090332 734.078L0.090332 797.17C7.87251 799.752 19.3581 803.681 31.9673 808.091C43.188 812.015 49.1178 813.85 58.0484 816.161C92.5125 825.083 154.333 825.387 187.73 816.8C189.124 816.441 192.547 815.62 195.337 814.975C208.542 811.921 224.876 805.777 251.477 793.855C294.184 774.716 323.523 768.642 373.196 768.655C410.591 768.666 431.401 772.333 467.74 785.318C472.92 787.169 478.951 789.286 481.142 790.023C483.334 790.759 487.572 792.243 490.561 793.32C492.44 793.997 493.702 794.454 494.976 794.872C497.768 795.787 500.62 796.515 510.159 798.964C520.032 801.499 527.11 802.851 539.825 804.631C549.363 805.967 598.779 805.961 609.737 804.622C631.047 802.019 641.864 799.896 659.001 794.949C660.595 794.49 663.855 793.382 666.246 792.488C678.525 787.898 682.468 786.375 685.445 785.071C687.238 784.286 694.247 781.206 701.021 778.227C736.156 762.778 752.297 757.925 779.989 754.484C794.042 752.738 795.039 752.532 794.408 751.512C792.879 749.037 754.381 753.776 734.279 758.913C726.018 761.024 720.184 762.948 689.429 773.698C650.896 787.167 619.386 791.181 575.324 788.231C538.381 785.758 512.391 779.326 480.056 764.656C468.092 759.228 457.675 754.656 453.612 753.051C419.173 739.442 392.065 734.719 348.201 734.687C322.395 734.669 317.728 734.989 301.11 737.921C281.797 741.33 275.851 743.086 235.545 757.293C214.35 764.764 196.99 768.722 176.138 770.839C147.399 773.757 106.656 771.419 79.7827 765.309C70.6775 763.239 63.3096 760.936 48.6302 755.573C46.0018 754.612 30.3024 747.602 14.5798 740.367C10.6113 738.541 4.73393 735.996 0.090332 734.078ZM0.090332 944.215L0.090332 1007.34C12.609 1006.65 34.6516 1006.53 44.2834 1007.32C66.2517 1009.12 71.8077 1009.49 83.8608 1009.97C91.6953 1010.28 100.108 1010.15 106.682 1009.6C151.78 1005.83 205 988.272 239.43 965.81C249.627 959.157 255.551 954.724 272.493 941.07C288.872 927.87 292.088 925.449 302.559 918.44C330.751 899.571 368.597 885.135 413.042 876.298C430.85 872.757 458.684 872.152 488.749 874.653C532.197 878.267 553.683 876.772 586.916 867.821C590.701 866.802 595.592 865.49 597.783 864.906C612.248 861.053 635.024 852.236 650.3 844.576C669.406 834.995 680.073 827.753 706.092 806.699C733.885 784.21 751.018 773.617 775.845 763.572C785.533 759.652 787.533 758.565 786.662 757.695C786.172 757.205 770.245 762.569 761.3 766.237C743.181 773.667 727.54 782.415 706.581 796.844C687.462 810.007 681.713 813.771 672.858 818.927C627.855 845.132 554.867 860.388 506.137 853.775C495.738 852.364 480.86 850.093 477.158 849.352C459.092 845.736 424.843 843.947 409.353 845.81L396.741 847.328C381.604 849.153 354.103 855.39 337.334 860.803C309.474 869.796 293.781 877.969 260.586 900.775C219.097 929.279 191.052 941.419 146.765 950.048C139.95 951.375 136.361 951.972 124.338 953.777C116.396 954.969 86.382 955.452 76.1603 954.552C63.729 953.457 56.8951 952.467 35.8555 948.715C23.9882 946.598 11.9405 945.083 0.090332 944.215ZM0.090332 1178.25L0.090332 1261.8C33.1482 1233.57 81.517 1208.18 115.644 1201.5C117.238 1201.19 121.639 1200.26 125.425 1199.43C129.21 1198.61 135.078 1197.45 138.465 1196.85C179.827 1189.55 195.069 1184.83 222.867 1170.72C271.783 1145.9 301.469 1120.37 334.074 1075.09C359.349 1039.99 378.216 1021.53 410.144 1000.67C452.402 973.058 478.053 963.381 535.478 953.39C572.568 946.937 603.018 934.366 639.441 910.469C672.979 888.466 689.534 872.301 716.625 835.107C739.279 804.005 757.04 785.354 777.815 770.85C783.679 766.757 786.147 764.667 786.147 763.796C786.147 762.295 773.675 770.327 760.171 780.524C743.54 793.081 731.644 804.867 712.2 828.053C679.77 866.722 648.604 890.15 601.311 911.405C588.659 917.092 566.639 924.717 557.937 926.425C556.941 926.621 552.051 927.599 547.07 928.601C538.79 930.265 530.466 931.382 510.484 933.511C468.976 937.933 445.844 944.201 414.127 959.615C372.671 979.762 343.8 1001.61 318.111 1032.28C303.551 1049.66 298.28 1055.56 289.21 1064.64C267.939 1085.91 242.618 1103.28 210.913 1118.36C179.397 1133.34 157.936 1139.06 119.267 1142.76C91.7779 1145.39 88.2163 1145.82 78.3337 1147.64C72.9545 1148.63 66.1082 1150.12 63.1198 1150.94C60.1313 1151.77 56.2191 1152.85 54.426 1153.35C41.2863 1156.99 20.0367 1166.8 0.090332 1178.25ZM0.090332 1559.65L0.090332 1568.06H102.54C109.276 1556.26 116.581 1539.39 122.567 1521.7C137.165 1478.55 151.859 1453.49 180.965 1422.09C207.664 1393.28 229.867 1376.8 264.162 1360.34C316.142 1335.38 328.674 1327.09 356.979 1298.94C376.627 1279.4 389.022 1264.43 400.83 1245.98C411.413 1229.44 416.328 1218.86 431.935 1179.04C446.975 1140.67 464.353 1114.76 497.081 1081.91C524.428 1054.47 540.535 1043.31 580.056 1024.42C622.333 1004.22 638.991 992.89 665.901 966.057C697.11 934.938 716.36 906.802 729.84 872.606C731.646 868.023 735.799 857.429 739.067 849.062C750.601 819.536 761.815 799.753 779.049 778.521C781.757 775.185 783.974 772.179 783.974 771.843C783.974 770.506 781.794 772.209 778.036 776.48C754.889 802.789 746.182 816.593 726.759 857.777C712.86 887.248 700.701 905.506 680.194 927.701C669.914 938.829 649.937 957.217 640.448 964.287C639.409 965.061 636.801 967.03 634.652 968.66C623.25 977.317 607.065 987.043 593.793 993.214C585.211 997.204 582.714 998.222 556.488 1008.42C522.821 1021.51 503.134 1033.16 476.583 1055.71C444.43 1083.01 420.904 1112.14 405.627 1143.54C383.581 1188.87 382.827 1190.3 374.129 1203.51C356.687 1230 324.238 1262.15 295.314 1281.62C277.305 1293.74 260.889 1301.65 232.285 1311.98C186.944 1328.36 165.192 1342.04 132.669 1374.65C102.219 1405.18 84.9511 1428.67 65.3251 1466.28C49.551 1496.5 38.857 1513.52 23.6814 1532.56C16.021 1542.17 5.27178 1554.45 0.090332 1559.65ZM291.576 1568.06H367.766C370.205 1563.3 373.04 1557.98 375.318 1553.97C392.627 1523.49 409.697 1503.2 438.761 1478.57C480.977 1442.8 497.865 1421.79 519.908 1377.62C537.413 1342.54 543.287 1321.49 548.126 1276.48C553.358 1227.82 559.008 1207.78 578.292 1169.45C598.43 1129.43 617.526 1105.62 654.292 1074.68C680.01 1053.04 695.285 1036.62 709.166 1015.68C712.865 1010.1 716.328 1004.89 716.863 1004.09C717.398 1003.29 720.701 997.425 724.203 991.05C745.315 952.619 754.912 922.867 758.902 883.472C762.222 850.684 764.316 837.163 768.159 823.706C768.955 820.917 769.859 817.657 770.168 816.462C771.391 811.729 775.72 800.033 779.686 790.749C781.983 785.372 783.745 780.858 783.603 780.716C780.91 778.022 764.642 816.808 758.737 840.006C756.752 847.805 755.675 853.186 750.982 878.763C743.444 919.849 731.72 948.302 706.804 985.979C687.425 1015.28 669.664 1034.28 643.603 1053.57C616.301 1073.77 611.503 1077.41 605.897 1082.16C580.052 1104.06 554.801 1137.48 536.536 1173.97C522.703 1201.6 518.238 1216.42 510.438 1260.54C504.163 1296.04 493.942 1323.52 475.632 1354.1C451.44 1394.51 432.368 1414.71 390.221 1444.54C349.944 1473.05 333.081 1491.53 309.229 1533.29C304.013 1542.42 296.405 1557.58 291.576 1568.06ZM550.408 1568.06H622.615C624.474 1565.14 626.596 1561.91 628.816 1558.64C652.366 1523.98 658.649 1513.82 664.436 1501.05C665.701 1498.26 667.179 1495 667.723 1493.81C673.716 1480.62 681.489 1454.74 685.677 1434.04C693.86 1393.59 694.04 1371.99 686.584 1325.01C682.303 1298.04 682.182 1296.62 682.234 1274.3C682.282 1253.79 682.791 1247.11 685.496 1231.56C693.805 1183.81 707.086 1149.73 730.953 1114.93C754.495 1080.6 760.243 1071.03 767.694 1053.71C783.353 1017.33 792.305 974.64 792.305 936.356C792.305 917.019 791.746 911.171 787.251 883.472C783.784 862.106 783.126 855.505 782.733 838.153C782.338 820.683 782.737 814.069 785.139 798.209C785.754 794.146 786.144 790.071 786.006 789.153L785.753 787.485L784.883 789.03C783.878 790.816 781.013 805.853 779.174 818.998C777.294 832.435 777.448 863.177 779.508 885.942C783.129 925.942 781.136 949.022 770.62 988.877C766.49 1004.53 756.784 1030.01 749.144 1045.25C739.584 1064.33 733.384 1073.34 708.674 1104.06C688.848 1128.71 675.493 1151.04 666.206 1175.06C646.987 1224.75 641.297 1262.36 645.547 1311.61C649.951 1362.65 646.956 1392.5 633.284 1433.83C619.596 1475.2 608.579 1494.63 578.544 1530.39C573.691 1536.17 566.921 1544.64 563.5 1549.23C560.079 1553.81 556.658 1558.37 555.898 1559.37C554.887 1560.69 552.656 1564.28 550.408 1568.06ZM780.839 1568.06H841.944C843.245 1564.34 844.697 1560.32 845.945 1557.04C850.028 1546.31 855.315 1527.49 857.443 1516.11C863.762 1482.3 862.223 1428.26 854.003 1395.28C848.974 1375.11 847.019 1369.85 830.704 1332.62C822.574 1314.06 819.884 1306.75 815.914 1292.41C804.418 1250.89 803.609 1188.27 814.068 1149.63C814.65 1147.48 815.595 1144.01 816.169 1141.91C817.257 1137.94 820.869 1127.31 827.797 1107.68C841.871 1067.81 846.402 1037.65 844.209 998.412C841.808 955.455 835.582 928.535 820.242 894.794C805.499 862.361 799.37 844.97 794.936 822.982C794.247 819.565 793.911 817.184 791.878 801.249C790.463 790.159 788.407 790.059 789.351 801.125C789.627 804.381 790.139 810.467 790.487 814.651C791.111 822.172 793.612 838.72 794.865 843.628C795.221 845.023 795.99 848.12 796.574 850.51C799.121 860.935 799.414 861.836 811.772 897.37C817.518 913.892 819.826 921.884 822.298 933.82C829.499 968.607 829.055 1015.23 821.162 1052.99C820.537 1055.98 819.758 1059.73 819.432 1061.32C817.875 1068.91 811.454 1087.35 805.553 1101.16C801.423 1110.84 800.426 1113.1 796.603 1121.48C784.858 1147.22 778.504 1169.7 774.915 1198.24C768.699 1247.67 773.366 1290.21 790.094 1336.6C806.504 1382.12 810.173 1401.09 810.193 1440.56C810.218 1490.96 804.073 1518.47 782.521 1564.44C781.943 1565.67 781.378 1566.89 780.839 1568.06ZM984.227 1568.06H1044.82L1044.83 1565.71C1044.87 1551.07 1045 1548.61 1047.34 1519.89C1049.72 1490.69 1047.88 1468.44 1040.44 1436.21C1035.74 1415.86 1024.79 1386.02 1015.19 1367.39C1006.42 1350.41 999.792 1340.73 979.823 1315.8C954.188 1283.8 944.867 1268.49 933.369 1239.53C914.222 1191.3 907.784 1147.66 912.903 1100.83C916.294 1069.8 914.947 1036.56 909.364 1013.51C908.978 1011.91 907.957 1007.68 907.097 1004.09C903.974 991.087 897.021 969.354 892.263 957.726C887.469 946.006 886.48 943.811 882.636 936.356C872.688 917.057 866.596 908.048 847.368 884.196C821.599 852.231 812.678 838.044 802.473 812.796C797.464 800.405 796.902 799.26 796.183 799.979C794.779 801.383 804.491 827.445 812.195 842.949C818.299 855.232 822.543 862.164 836.778 883.11C856.207 911.695 862.199 921.75 867.649 934.907C868.722 937.497 870.043 940.594 870.585 941.789C878.759 959.829 887.384 993.166 891.671 1023.29C893.303 1034.76 893.529 1071.41 892.03 1081.6C891.503 1085.19 889.798 1096.45 888.242 1106.62C880.728 1155.74 881.729 1183.06 892.661 1227.22C902.502 1266.97 911.986 1287.44 938.299 1325.75C963.789 1362.86 973.91 1383.91 983.22 1419.19C994.915 1463.5 996.47 1496.03 988.973 1539.45C986.565 1553.39 985.084 1562.26 984.227 1568.06ZM1205.9 1568.06H1284.84C1274.72 1553.64 1266.61 1540.1 1259 1524.96C1245.73 1498.54 1240.88 1482.31 1233.12 1438.39C1227.3 1405.45 1217.4 1378.1 1201.28 1350.37C1199.2 1346.78 1196.84 1342.71 1196.04 1341.31C1191.53 1333.45 1177.43 1313.4 1170.57 1305.09C1156.41 1287.95 1143.31 1275.59 1124.62 1261.74C1097.05 1241.31 1092.71 1237.99 1086.19 1232.36C1065.85 1214.77 1047.38 1192.06 1030.15 1163.43C1017.68 1142.7 1005.98 1116.91 1002.06 1101.53C997.717 1084.48 996.316 1078.06 993.994 1064.58C993.204 1060 991.719 1052.17 990.691 1047.19C989.665 1042.21 988.662 1037.32 988.463 1036.33C987.972 1033.86 984.406 1021.17 982.458 1014.96C975.731 993.492 958.971 961.757 941.313 937.05C923.179 911.675 909.367 897.627 883.589 878.342C838.645 844.716 828.924 835.914 812.85 814.289C803.132 801.214 802.566 800.533 802.235 801.524C801.891 802.555 805.499 808.616 811.774 817.549C825.222 836.692 839.053 851.803 857.69 867.716C861.774 871.202 868.456 876.903 872.541 880.384C890.597 895.774 906.484 912.916 918.037 929.474C940.181 961.209 961.401 1008.1 966.067 1035.6L966.293 1036.93C966.662 1039.11 967.33 1043.06 967.969 1046.83C968.779 1051.61 970.257 1063.19 971.254 1072.55C973.576 1094.36 974.234 1099.4 976.025 1109.13C978.803 1124.22 984.865 1144.59 989.993 1156.05C999.547 1177.42 1002.81 1184 1010.44 1197.22C1029.65 1230.53 1044.39 1247.46 1080.65 1277.92C1093.02 1288.31 1110.92 1305.89 1117.91 1314.51C1146.13 1349.33 1169.86 1398.22 1176.55 1435.31C1179.22 1450.1 1179.51 1452.48 1181.7 1476.71C1185.38 1517.49 1190.65 1537.39 1205.9 1568.06ZM1549.02 1548.09V1461.21C1538.08 1457.2 1521.62 1450.22 1513.58 1445.88C1478.23 1426.76 1438.96 1390.35 1416.05 1355.44C1410.07 1346.33 1402.46 1332.44 1396.81 1320.3C1375.37 1274.26 1362.65 1255.4 1334.07 1227.34C1313.71 1207.35 1297.58 1194.51 1278.41 1183.02C1263.54 1174.12 1252.97 1169.29 1223.73 1158.05C1203.08 1150.11 1188.7 1143.4 1176.64 1136.09C1144.2 1116.4 1107.05 1081.29 1086.68 1051.06C1077.34 1037.21 1076.63 1035.89 1057.96 997.932C1040.3 962.009 1030.42 948.04 1003.88 921.442C971.446 888.936 945.574 871.204 910.032 857.121C905.45 855.305 894.669 851.048 886.075 847.66C856.477 835.993 837.722 825.275 816.597 807.95C806.008 799.266 807.049 802.599 817.815 811.852C843.658 834.063 854.432 840.78 895.052 860.004C931.962 877.472 953.321 892.94 981.038 922.277C1010.7 953.666 1025.01 976.135 1040.83 1016.15C1044.67 1025.85 1048.97 1036.73 1050.39 1040.31C1063.25 1072.8 1082.43 1100.69 1113.24 1131.67C1138.98 1157.56 1157.87 1170.59 1195.84 1188.63C1238.78 1209.05 1257.25 1221.74 1284.24 1249.41C1317.82 1283.83 1334.11 1310.03 1349.94 1355.08C1366.96 1403.49 1387.92 1434 1429.82 1471.34C1454.69 1493.5 1472.97 1505.84 1508.09 1524.19C1523.75 1532.37 1538.58 1541.06 1549.02 1548.09ZM1549.02 1264.56V1182.53C1538.9 1173.34 1523.68 1157.24 1509.53 1140.31C1483.3 1108.92 1457.7 1088.82 1418.7 1069.01C1391.87 1055.38 1371.15 1048.01 1347.25 1043.6C1335.65 1041.46 1329.03 1040.61 1307.41 1038.46C1264.06 1034.15 1231.39 1023.34 1190.4 999.754C1157.35 980.731 1140.81 966.263 1109.25 928.749C1080.89 895.046 1055.46 875.52 1012.55 854.517C981.255 839.202 955.894 831.867 922.348 828.432C873.98 823.478 857.731 819.813 828.784 807.326C812.663 800.371 813.005 802.273 829.317 810.286C854.695 822.754 870.291 827.58 907.859 834.587C953.195 843.044 974.419 850.471 1005.66 868.811C1044.54 891.635 1069.37 913.4 1093.03 945.418C1111.57 970.5 1116.94 977.568 1121.08 982.357C1144.21 1009.1 1176.44 1033.1 1214.68 1052.07C1239.28 1064.27 1256.82 1069.59 1294 1076.14C1335.53 1083.45 1361.41 1093 1394.71 1113.32C1433.89 1137.22 1452.27 1154.66 1481.47 1195.65C1507.09 1231.62 1521.75 1246.59 1549.02 1264.56ZM1549.02 993.101V927.941C1542.86 924.497 1541.84 924.039 1535.25 921.133C1515.93 912.608 1494.43 906.107 1467.88 900.751C1434.83 894.088 1405.75 893.791 1369.35 899.747C1339.91 904.563 1331.43 905.409 1312.84 905.383C1273.09 905.327 1225.37 894.677 1189.68 877.89C1175.6 871.268 1167.51 866.252 1135.34 844.202C1119.68 833.462 1105.67 825.467 1091.93 819.428C1072.51 810.891 1042.1 802.28 1017.62 798.388C1013.63 797.754 1009.39 797.068 1008.2 796.865C991.241 793.971 959.934 793.997 941.277 796.92C939.831 797.146 936.693 797.636 934.302 798.009C931.912 798.381 925.88 799.336 920.9 800.133C885.493 805.787 865.116 806.312 837.991 802.269C825.85 800.459 823.741 802.025 835.049 804.453C859.078 809.613 886.317 810.78 918.373 808.023C939.888 806.172 968.537 805.835 980.669 807.289C1012.62 811.119 1048.61 821.508 1078.05 835.405C1098.34 844.983 1111.26 853.545 1137.52 874.814C1173.91 904.294 1194.75 915.853 1234.81 928.792C1277.65 942.627 1303.42 945.357 1354.14 941.435C1381.99 939.28 1389.16 939.056 1401.59 939.95C1445.92 943.135 1493.19 957.753 1529 979.347C1534.13 982.444 1542.33 988.13 1549.02 993.101ZM1549.02 784.401V729.05C1548.66 728.994 1548.29 728.937 1547.93 728.88C1516.07 723.8 1473.02 724.938 1439.99 731.733C1435.6 732.637 1432.09 733.496 1421.15 736.356C1413.1 738.459 1401.72 743.015 1367.13 757.977C1330.87 773.661 1304.99 779.136 1261.4 780.341C1217.37 781.559 1197.66 777.864 1141.5 757.859C1112.07 747.374 1091.93 743.789 1058.91 743.15C1008.67 742.177 973.257 748.733 935.12 766.069C893.961 784.777 876.604 790.311 846.279 794.392C840.501 795.17 834.244 795.808 832.375 795.811C828.564 795.817 827.106 796.97 829.994 797.696C834.358 798.791 867.38 795.583 879.242 792.911C891.974 790.044 903.853 786.669 914.379 782.927C917.766 781.723 924.775 779.223 929.956 777.373C955.924 768.096 972.917 763.852 994.072 761.362C1007.41 759.792 1043.6 759.798 1060 761.372C1071.22 762.45 1074.1 762.842 1084.99 764.786C1104.4 768.249 1127.51 775.843 1149.11 785.865C1162.6 792.124 1170.71 795.508 1182.8 799.926C1209.86 809.818 1240.98 814.604 1278.43 814.634C1311.51 814.661 1335.1 810.715 1366.09 799.972C1414.03 783.354 1420.91 781.49 1446.14 778.303C1458.1 776.794 1502.94 777.047 1516.78 778.703C1527.31 779.962 1540 782.275 1549.02 784.401ZM1549.02 594.384V539.033L1538.88 539.057C1513.98 539.116 1506.39 539.85 1485.63 544.197C1459.71 549.623 1431.99 558.972 1409.64 569.819C1390.6 579.063 1378.64 587.129 1352.69 608.215C1316.48 637.639 1291.45 651.097 1249.81 663.526C1207.71 676.095 1181.89 678.287 1130.64 673.649C1107.17 671.525 1069.22 673.203 1056.01 676.95C1054.82 677.289 1051.88 677.977 1049.49 678.477C1023.41 683.938 989.61 696.18 968.353 707.865C953.226 716.18 942.687 723.491 924.64 738.189C892.802 764.118 875.404 775.056 849.721 785.29C834.041 791.539 833.488 793.447 848.814 788.416C870.79 781.201 891.577 770.771 912.704 756.359C950.113 730.838 958.435 725.836 975.96 718.341C978.948 717.063 982.408 715.56 983.648 715C984.888 714.44 991.245 712.229 997.775 710.085C1029.17 699.781 1063.76 693.709 1091.15 693.693C1108.14 693.682 1117.34 694.608 1148.02 699.418C1172.82 703.304 1174.62 703.452 1196.56 703.41C1221.85 703.362 1237.7 701.349 1264.3 694.807C1307.43 684.199 1324.57 676.008 1372.25 643.198C1400.1 624.033 1422.01 613.691 1453.03 605.068C1472.19 599.741 1485.77 597.13 1508.38 594.427C1517.37 593.354 1536.57 593.519 1549.02 594.384ZM1549.02 401.046V334.583C1543.36 336.971 1536.74 339.572 1532.36 341.055C1519.63 345.357 1506.54 348.497 1484.9 352.441C1466.1 355.868 1452.13 358.954 1443.25 361.645C1434.6 364.266 1419.86 369.639 1416.08 371.55C1414.88 372.155 1410.81 374.117 1407.02 375.912C1388.19 384.838 1363.72 400.175 1346.53 413.836C1324.93 430.993 1313.42 443.54 1291.81 473.443C1266.81 508.046 1247.61 526.874 1216.12 547.661C1178.02 572.814 1148.63 584.936 1108.18 592.179C1084.95 596.339 1078.49 597.655 1067.97 600.376C1059.77 602.495 1042.94 607.912 1041.52 608.888C1041.13 609.163 1039.17 609.98 1037.18 610.705C1022.26 616.13 988.136 635.881 969.905 649.639C945.56 668.009 931.754 682.496 909.648 712.868C885.189 746.475 870.404 761.876 845.319 779.878C840.099 783.625 838.827 784.949 840.451 784.949C841.606 784.949 848.053 780.928 856.938 774.667C877.745 760.005 892.172 746.344 912.256 722.286C944.42 683.76 969.7 663.85 1013.64 642.443C1048.7 625.361 1069.37 620.066 1121.94 614.701C1157.79 611.043 1183.78 603.233 1218.3 585.738C1261.19 563.997 1283.01 546.302 1316.11 506.405C1331.12 488.312 1349.79 470.548 1366.09 458.851C1381.96 447.462 1414.39 429.576 1430.21 423.492C1447.22 416.944 1462.67 412.333 1474.24 410.348C1486.81 408.191 1491.81 407.514 1502.65 406.495C1526.55 404.249 1531.4 403.744 1538.61 402.742C1541.51 402.34 1545.58 401.672 1549.02 401.046ZM1549.02 103.063V0.38916L1513.33 0.38916C1509.64 8.84504 1506.85 16.1488 1503.62 25.7443C1487.4 73.9111 1469.52 102.559 1433.73 137.696C1409.17 161.811 1392.55 173.511 1361.53 188.513C1332.14 202.732 1328.42 204.602 1320.45 209.201C1303.22 219.137 1292.87 227.047 1271.31 246.757C1266.4 251.247 1249.58 269.651 1242.98 277.761C1222.36 303.1 1211.7 322.39 1197.31 360.432C1182.97 398.336 1170.55 419.836 1147.3 447.002C1117.94 481.321 1089.05 504.087 1054.2 520.365C1006.62 542.594 989.435 553.77 962.655 579.91C925.128 616.538 907.317 644.215 888.275 695.482C876.806 726.358 864.74 747.935 846.444 770.282C839.647 778.584 838.706 781.635 844.965 775.077C862.279 756.937 877.621 734.936 888.252 713C890.992 707.35 896.461 696.043 900.408 687.875C916.094 655.411 930.365 635.537 955.891 610.607C990.918 576.399 1014.31 561.539 1061.81 543.314C1086.52 533.833 1097.07 529.031 1110.46 521.174C1138.58 504.666 1172.4 474.606 1193.91 447.002C1206.87 430.376 1211.83 421.668 1233.76 377.094C1249.37 345.356 1262.56 327.223 1288.29 302.104C1322.72 268.501 1345.73 254.342 1395.79 235.97C1440.58 219.533 1459.63 207.317 1493.62 173.232C1507.79 159.014 1516.17 149.689 1527.2 135.858C1533.19 128.335 1541.61 115.611 1549.02 103.063ZM1324.47 0.38916L1247.1 0.38916C1243.95 5.6257 1240.08 11.7206 1236.56 16.8577C1223.23 36.3007 1208.99 51.4399 1184.25 72.4622C1145.12 105.707 1126.79 128.75 1105.82 171.044C1088.38 206.222 1081.77 229.86 1077.38 272.776C1072.59 319.502 1066.39 341.47 1047.35 379.267C1026.98 419.693 1009.38 441.663 971.251 474.3C947.795 494.375 935.52 506.885 923.729 522.735C899.036 555.924 877.074 603.236 870.945 636.441C870.468 639.031 869.783 642.616 869.425 644.409C868.658 648.244 866.261 668.031 865.125 679.907C862.085 711.679 856.064 735.496 844.795 760.319C843.258 763.705 841.796 767.454 841.546 768.65L841.093 770.823L842.514 769.07C846.611 764.015 858.847 736.091 863.174 721.924C867.208 708.714 868.574 702.557 874.185 672.3C876.933 657.486 877.259 655.948 879.629 646.583C891.505 599.666 926.934 542.107 963.644 510.088C973.11 501.831 977.096 498.716 994.796 485.744C1011.57 473.449 1020.57 466.245 1028.81 458.506C1057.42 431.629 1086.94 386.301 1100.88 347.854C1106.59 332.098 1108.09 325.785 1116.2 283.28C1117.64 275.71 1119.3 267.723 1119.89 265.531C1120.47 263.34 1121.43 259.754 1122.02 257.563C1132.26 219.365 1161.96 169.236 1192.2 139.118C1203.64 127.727 1212.27 120.744 1234.57 104.861C1263.44 84.2893 1275.29 73.8009 1289.17 56.5247C1295.38 48.7993 1308.39 29.8359 1312.53 22.4843C1316.57 15.2974 1321.1 6.90253 1324.47 0.38916ZM1061.7 0.38916L989.868 0.38916C989.771 0.529059 989.673 0.669373 989.575 0.810049C968.477 31.0747 958.701 49.686 949.897 76.3502C934.983 121.521 930.238 170.005 936.807 210.112C939.62 227.288 941.295 238.398 942.758 249.594C946.234 276.189 941.388 322.517 931.731 354.999C921.157 390.57 911.871 409.483 888.737 442.572C861.753 481.167 850.322 506.591 840.496 549.871C832.114 586.786 830.835 617.368 836.206 652.378C843.895 702.49 844.706 716.28 841.443 741.483C838.086 767.426 840.616 766.092 844.879 739.672C847.72 722.06 848.705 692.902 847.037 675.769C844.905 653.872 844.592 648.213 844.577 631.37C844.561 614.139 844.898 609.336 847.109 595.148C851.478 567.134 863.215 530.134 875.606 505.318C885.536 485.431 891.583 476.419 912.549 450.262C942.287 413.162 954.074 392.183 966.073 354.999C981.547 307.051 984.433 277.444 978.805 224.422C977.734 214.333 977.727 183.728 978.793 175.34C982.216 148.425 988.316 124.008 998.069 98.1875C1009.42 68.1446 1020.14 50.6879 1047.12 18.3565C1052.9 11.4293 1057.91 5.25203 1061.7 0.38916ZM835.747 0.38916L776.709 0.38916C773.599 9.76221 771.16 18.3263 770.216 23.2088C769.908 24.8025 769.154 28.3885 768.54 31.1775C764.817 48.0981 763.133 74.7485 764.336 97.6847C766.642 141.642 772.098 164.847 789.24 203.613C802.672 233.986 805.664 241.808 809.741 257.2C816.2 281.59 818.33 300.718 818.334 334.352C818.338 374.903 815.242 392.346 801.036 431.789C792.522 455.43 789.553 464.991 786.543 478.482C776.356 524.128 780.479 591.214 795.939 631.37C799.639 640.979 804.497 652.733 807.017 658.174C823.293 693.309 830.02 715.51 833.244 744.743C834.191 753.326 834.535 754.703 835.569 754.064C837.253 753.023 834.887 727.929 831.377 709.608C828.509 694.634 825.564 684.946 814.094 652.74C806.324 630.92 802.698 616.22 799.804 594.786C798.47 584.914 798.46 537.229 799.789 525.24C803.198 494.473 809.502 470.529 820.631 446.074C821.588 443.971 822.371 442.128 822.371 441.98C822.371 441.832 823.649 438.989 825.21 435.663C845.433 392.586 852.814 358.658 852.79 308.884C852.773 273.637 848.961 251.044 837.593 218.805C823.377 178.492 820.615 168.63 817.307 146.362C813.499 120.732 815.042 72.2239 820.453 47.4772C822.579 37.7539 824.333 31.1732 827.112 22.4843C828.373 18.5425 832.428 8.225 835.747 0.38916ZM638.133 0.38916L580.26 0.38916C579.952 5.37723 579.435 12.468 578.9 18.8622C576.573 46.7014 577.1 71.4024 580.43 90.581C581.643 97.5681 584.059 109.234 584.782 111.59C585.148 112.785 586.788 118.612 588.425 124.539C600.614 168.649 615.179 196.097 646.749 234.455C676.71 270.856 692.525 301.636 704.77 347.371C707.652 358.135 707.812 358.827 709.935 369.85C714.648 394.308 715.637 418.329 713.05 445.553C710.515 472.236 710.193 498.767 712.24 512.201C715.921 536.359 720.094 553.589 727.681 575.951C739.546 610.921 750.656 630.402 778.709 665.418C803.674 696.581 812.516 710.697 823.043 736.193C829.986 753.01 832.031 754.398 826.774 738.725C818.138 712.984 808.204 693.934 788.736 665.78C762.851 628.349 752.976 608.175 743.701 573.777C730.533 524.945 728.923 491.778 737.297 441.931C740.339 423.823 741.189 416.654 741.925 402.889C743.477 373.848 738.992 341.36 728.484 305.532C719.415 274.614 709.711 255.292 686.563 222.065C660.642 184.859 647.314 155.672 639.589 119.196C633.829 92.0001 631.837 75.7895 631.835 56.1045C631.834 40.414 632.91 30.4386 637.365 4.86759C637.633 3.32977 637.891 1.82262 638.133 0.38916ZM428.426 0.38916C431.943 9.16098 433.139 12.759 436.211 23.571C439.211 34.1289 441.847 50.2199 443.449 67.7614C443.868 72.3434 444.556 79.8413 444.979 84.4233C446.91 105.349 449.607 119.621 454.839 136.582C462.083 160.07 475.67 188.011 492.312 213.65C504.855 232.973 521.736 251.222 546.708 272.455C589.507 308.847 609.609 335.472 632.546 386.149C645.21 414.129 650.237 435.658 654.708 481.05C658.315 517.672 666.577 545.579 683.918 579.721C702.242 615.8 722.626 642.332 750.338 666.173C754.293 669.575 761.931 676.151 767.311 680.785C788.147 698.732 796.67 708.031 813.643 731.34C818.012 737.34 823.095 745.757 823.095 746.993C823.095 748.12 819.821 744.428 815.96 738.948C800.134 716.485 784.147 701.521 747.388 674.762C716.531 652.301 698.491 633.65 678.441 603.479C652.803 564.899 641.086 536.487 633.327 494.09C626.052 454.332 622.194 439.997 613.343 419.835C591.936 371.072 558.48 328.765 518.754 300.224C491.077 280.339 485.497 275.784 470.993 261.232C438.712 228.843 409.678 179.791 398.612 138.947C396.762 132.12 392.802 113.056 390.521 99.9986C390.103 97.608 389.48 94.348 389.137 92.7543C388.794 91.1605 387.968 87.0856 387.302 83.6989C382.528 59.4253 372.442 32.7416 360.25 12.1293C359.002 10.0198 357.982 8.17535 357.982 8.02974C357.982 7.88953 355.976 4.49684 353.468 0.38916L428.426 0.38916Z" fill="white" fill-opacity="0.05"/>
</svg>
