<svg width="13" height="13" viewBox="0 0 13 13" fill="none" xmlns="http://www.w3.org/2000/svg">
<path fill-rule="evenodd" clip-rule="evenodd" d="M10.953 6.22022C10.8079 6.59328 10.8079 7.00717 10.953 7.38022L11.0381 7.62522C11.3478 8.43417 10.9727 9.34423 10.1828 9.70022L9.95772 9.80022C9.58854 9.95928 9.28987 10.2472 9.11744 10.6102L9.01741 10.8352C8.66131 11.6249 7.75095 11.9999 6.94174 11.6902L6.71167 11.6052C6.33849 11.4601 5.92447 11.4601 5.55129 11.6052L5.32122 11.6902C4.512 11.9999 3.60165 11.6249 3.24555 10.8352L3.14551 10.6102C2.9864 10.2412 2.6984 9.94259 2.33525 9.77022L2.11018 9.67022C1.32027 9.31423 0.945164 8.40417 1.2549 7.59522L1.33993 7.36522C1.48508 6.99217 1.48508 6.57828 1.33993 6.20522L1.2549 5.97522C0.945164 5.16627 1.32027 4.25621 2.11018 3.90022L2.33525 3.80022C2.69318 3.63525 2.98049 3.34803 3.14551 2.99022L3.26055 2.76522C3.61705 1.96765 4.53775 1.59112 5.35123 1.91022L5.5813 1.99522C5.95448 2.14032 6.3685 2.14032 6.74168 1.99522L6.97175 1.91022C7.78096 1.60059 8.69132 1.97557 9.04742 2.76522L9.14745 2.99022C9.31248 3.34803 9.59979 3.63525 9.95772 3.80022L10.1828 3.91522C10.9727 4.27121 11.3478 5.18127 11.0381 5.99022L10.953 6.22022ZM5.51204 8.4751L8.32295 5.6651C8.41504 5.56853 8.41504 5.41668 8.32295 5.3201L8.05787 5.0551C7.96062 4.95981 7.805 4.95981 7.70775 5.0551L5.33699 7.4251L4.58674 6.6801C4.54136 6.63176 4.478 6.60434 4.41169 6.60434C4.34537 6.60434 4.28201 6.63176 4.23663 6.6801L3.97154 6.9451C3.9242 6.99204 3.89757 7.05594 3.89757 7.1226C3.89757 7.18926 3.9242 7.25316 3.97154 7.3001L5.16193 8.4751C5.20731 8.52344 5.27067 8.55086 5.33699 8.55086C5.4033 8.55086 5.46666 8.52344 5.51204 8.4751Z" fill="#E26821"/>
</svg>
