<svg width="19" height="20" viewBox="0 0 19 20" fill="none" xmlns="http://www.w3.org/2000/svg">
<path d="M16.9864 6.81231C16.8545 6.76043 16.714 6.73398 16.5722 6.73438H16.5574C15.8089 6.74551 14.9695 7.4465 14.529 8.50672C14.0009 9.77512 14.244 11.0728 15.076 11.4064C15.2077 11.4583 15.3481 11.4848 15.4898 11.4844C16.242 11.4844 17.0929 10.7793 17.5371 9.71203C18.0614 8.44363 17.8147 7.14592 16.9864 6.81231ZM12.157 11.762C11.1253 10.0501 10.68 9.40625 9.49993 9.40625C8.31985 9.40625 7.87083 10.0542 6.83919 11.762C5.95599 13.2226 4.17103 13.3443 3.72571 14.5849C3.63537 14.8121 3.59 15.0547 3.59212 15.2992C3.59212 16.3082 4.36399 17.125 5.31399 17.125C6.49407 17.125 8.10091 16.1828 9.50364 16.1828C10.9064 16.1828 12.5058 17.125 13.6859 17.125C14.6359 17.125 15.404 16.3086 15.404 15.2992C15.4049 15.0545 15.3583 14.8119 15.2667 14.5849C14.8214 13.3398 13.0402 13.2226 12.157 11.762ZM7.14386 7.77344C7.19355 7.77348 7.24317 7.76976 7.29229 7.76231C8.1536 7.63725 8.69132 6.44381 8.49612 5.096C8.31243 3.82537 7.5413 2.875 6.73491 2.875C6.68522 2.87496 6.6356 2.87868 6.58647 2.88613C5.72517 3.01119 5.18745 4.20463 5.38265 5.55244C5.56634 6.81936 6.33747 7.77344 7.14386 7.77344ZM13.6161 5.55244C13.8113 4.20463 13.2736 3.01119 12.4123 2.88613C12.3631 2.87868 12.3135 2.87496 12.2638 2.875C11.4575 2.875 10.6878 3.82537 10.5037 5.096C10.3085 6.44381 10.8463 7.63725 11.7076 7.76231C11.7567 7.76976 11.8063 7.77348 11.856 7.77344C12.6624 7.77344 13.4335 6.81936 13.6161 5.55244ZM3.92499 11.4064C4.75587 11.0725 4.99856 9.77363 4.47124 8.50672C4.02741 7.43945 3.17724 6.73438 2.42614 6.73438C2.28454 6.73399 2.14414 6.76043 2.01237 6.81231C1.18149 7.14629 0.938799 8.44512 1.46612 9.71203C1.90995 10.7793 2.76013 11.4844 3.51122 11.4844C3.65283 11.4848 3.79323 11.4583 3.92499 11.4064Z" stroke="#2D2D2D" stroke-width="1.1875" stroke-miterlimit="10"/>
</svg>
