<svg width="19" height="20" viewBox="0 0 19 20" fill="none" xmlns="http://www.w3.org/2000/svg">
<g clip-path="url(#clip0_76_1623)">
<path d="M3.39393 0.437297L3.43031 0.582819C3.86428 0.474325 4.35541 0.495773 4.80815 0.570508C5.596 0.702119 6.60351 1.09168 7.58604 2.07421C8.53693 3.0251 9.12488 4.08742 9.47496 4.90399L9.47501 4.90411C9.58262 5.15449 9.67929 5.40942 9.76475 5.6682L9.79875 5.77116H9.90718H13.0349C13.9461 5.77116 14.8448 5.87977 15.6483 6.28152L15.6483 6.28154C16.7041 6.809 17.6658 7.82386 18.5743 9.64167L18.5742 9.6417L18.5764 9.64581C18.6221 9.73048 18.6503 9.82346 18.6593 9.91923C18.6684 10.015 18.6581 10.1116 18.6291 10.2033C18.6001 10.2951 18.5529 10.38 18.4905 10.4532L18.6045 10.5506L18.4905 10.4532C18.428 10.5263 18.3515 10.5862 18.2654 10.6292C18.1794 10.6723 18.0856 10.6976 17.9896 10.7036C17.8936 10.7097 17.7973 10.6964 17.7065 10.6646C17.6157 10.6328 17.5323 10.583 17.4611 10.5184C17.3899 10.4537 17.3324 10.3753 17.2921 10.288L17.2921 10.288L17.29 10.2837C16.7673 9.23994 16.267 8.56726 15.7961 8.12696L15.455 7.80804L15.5466 8.26594L16.4409 12.7387L16.4846 12.957L16.6706 12.8345C16.8178 12.7375 16.9956 12.698 17.1701 12.7236C17.3446 12.7492 17.5036 12.8381 17.6167 12.9734C17.7299 13.1086 17.7893 13.2808 17.7837 13.4571C17.7782 13.6319 17.7091 13.7987 17.5894 13.9261L17.5803 13.9344L17.5336 13.9771C17.4932 14.0139 17.4364 14.0655 17.375 14.1208C17.2507 14.2327 17.1126 14.3553 17.0498 14.4056C16.5822 14.773 16.082 15.097 15.5554 15.3733L15.5549 15.3735C14.2347 16.0722 12.2753 16.7593 9.68316 16.7593C7.09099 16.7593 5.13251 16.0722 3.81138 15.3735C3.15571 15.026 2.65825 14.6764 2.31992 14.4082L1.77688 13.9258C1.65304 13.7876 1.58739 13.6068 1.59391 13.4212C1.60051 13.2331 1.68066 13.0551 1.81714 12.9255C1.95361 12.7959 2.1355 12.725 2.32368 12.7282C2.51186 12.7313 2.6913 12.8081 2.82341 12.9422L2.82339 12.9422L2.82546 12.9442C2.99345 13.1082 3.17314 13.2597 3.36312 13.3976L3.53214 13.5203L3.59441 13.321L5.39183 7.5675L5.41474 7.49417L5.36862 7.43273L4.76775 6.63214L4.69268 6.53212L4.58078 6.58798L3.49191 7.13155L3.49182 7.13159C3.35703 7.19899 3.20445 7.22228 3.05568 7.19817C2.90694 7.17407 2.76954 7.1038 2.66293 6.99731C2.66292 6.99729 2.6629 6.99728 2.66289 6.99726L1.36046 5.69483L1.36045 5.69482C1.24023 5.57464 1.16654 5.41571 1.15247 5.24631C1.1384 5.07693 1.18484 4.90805 1.28354 4.76969C1.28356 4.76967 1.28357 4.76965 1.28359 4.76963L3.15042 2.15605L3.20281 2.08271L3.16264 2.00202L2.96293 1.60085L2.96282 1.60064C2.91476 1.50448 2.88889 1.39877 2.88713 1.29128C2.88536 1.1838 2.90774 1.07729 2.95262 0.979605C2.9975 0.881922 3.06373 0.795558 3.14643 0.726878C3.22913 0.658199 3.32619 0.608957 3.43045 0.582783L3.39393 0.437297ZM3.39393 0.437297C3.85587 0.321811 4.36992 0.346124 4.83273 0.422536L2.82865 1.6677C2.77055 1.55147 2.73928 1.42368 2.73715 1.29375C2.73501 1.16382 2.76207 1.03507 2.81632 0.916985C2.87057 0.798903 2.95063 0.694504 3.0506 0.611483C3.15056 0.528462 3.26789 0.468937 3.39393 0.437297ZM15.2125 13.9211L15.1182 13.9746C14.7649 14.1751 14.3451 14.3814 13.8605 14.5708L13.7189 14.6262L13.6655 14.4838L12.5263 11.4473L12.5262 11.4473C12.4749 11.3104 12.3831 11.1924 12.2629 11.1091C12.1428 11.0258 12.0001 10.9811 11.854 10.9811L15.2125 13.9211ZM15.2125 13.9211L15.1912 13.8147M15.2125 13.9211L15.1912 13.8147M15.1912 13.8147L14.0338 8.02651L14.0338 8.02642M15.1912 13.8147L14.0338 8.02642M14.0338 8.02642C13.9651 7.6844 13.7625 7.4742 13.508 7.35484C13.2618 7.23942 12.9701 7.20958 12.7085 7.20779H12.7075M14.0338 8.02642L12.7075 7.20779M12.7075 7.20779H9.249C8.90531 7.20779 8.61586 6.95996 8.54202 6.62001L8.54207 6.62M12.7075 7.20779L8.54207 6.62M8.54207 6.62L8.54115 6.61622L8.54207 6.62ZM6.78448 6.92672L5.4821 5.19023C5.38113 5.05574 5.23618 4.96094 5.07249 4.92234C4.90881 4.88375 4.73677 4.90382 4.58636 4.97904L4.58627 4.97908L3.40883 5.56694L3.31216 5.6152L3.23576 5.5388L2.89625 5.19929L2.80638 5.10942L2.88027 5.00601L4.62385 2.56605C4.62385 2.56605 4.62385 2.56604 4.62386 2.56603C4.69932 2.4604 4.74474 2.33628 4.7553 2.20689L4.77038 2.02202L4.94801 2.07544C5.41585 2.21616 5.98548 2.50499 6.57037 3.08988C7.35597 3.87548 7.85339 4.76671 8.15458 5.46968C8.15463 5.4698 8.15468 5.46993 8.15473 5.47005L8.01685 5.52912L6.78448 6.92672ZM6.78448 6.92672C6.85269 7.0178 6.89829 7.12377 6.91752 7.23592C6.93675 7.34807 6.92907 7.46318 6.8951 7.57177L6.89509 7.57181M6.78448 6.92672L6.89509 7.57181M6.89509 7.57181L4.84238 14.1406L4.80322 14.2659M6.89509 7.57181L4.80322 14.2659M4.80322 14.2659L4.92224 14.3214M4.80322 14.2659L4.92224 14.3214M4.92224 14.3214C5.31985 14.5065 5.7746 14.6863 6.28645 14.8404L6.42087 14.8809M4.92224 14.3214L6.42087 14.8809M6.42087 14.8809L6.47016 14.7495M6.42087 14.8809L6.47016 14.7495M6.47016 14.7495L7.70838 11.4473L7.70839 11.4473M6.47016 14.7495L7.70839 11.4473M7.70839 11.4473C7.7597 11.3104 7.85157 11.1924 7.9717 11.1091M7.70839 11.4473L7.9717 11.1091M7.9717 11.1091C8.09183 11.0258 8.2345 10.9811 8.38068 10.9811M7.9717 11.1091L8.38068 10.9811M8.38068 10.9811C8.3807 10.9811 8.38072 10.9811 8.38073 10.9811M8.38068 10.9811H8.38073M8.38073 10.9811H11.8539H8.38073ZM17.5865 13.9293L17.6907 14.0367C17.6812 14.0454 17.6584 14.0663 17.627 14.0949C17.58 14.0392 17.5628 13.9667 17.5764 13.9411C17.5797 13.9369 17.5844 13.9316 17.5865 13.9293ZM17.5924 13.9233C17.5928 13.9229 17.5927 13.923 17.5914 13.9242L17.5917 13.924L17.5924 13.9233ZM12.1668 15.0729L12.338 15.0372L9.68316 15.1727V15.3227C9.68328 15.3227 9.6834 15.3227 9.68352 15.3227C10.6048 15.3226 11.432 15.226 12.1668 15.0729Z" fill="#2D2D2D" stroke="white" stroke-width="0.3"/>
</g>
<defs>
<clipPath id="clip0_76_1623">
<rect width="19" height="19" fill="white" transform="translate(0 0.5)"/>
</clipPath>
</defs>
</svg>
