<svg width="19" height="20" viewBox="0 0 19 20" fill="none" xmlns="http://www.w3.org/2000/svg">
<path d="M16.625 13.1681V6.83133C16.6247 6.62392 16.5702 6.4202 16.4667 6.24044C16.3633 6.06068 16.2145 5.91115 16.0353 5.80674L10.3947 2.52404C10.1229 2.36582 9.8141 2.28247 9.49963 2.28247C9.18516 2.28247 8.87632 2.36582 8.60455 2.52404L2.96467 5.80674C2.78546 5.91115 2.63673 6.06068 2.53328 6.24044C2.42982 6.4202 2.37525 6.62392 2.375 6.83133V13.1681C2.37512 13.3757 2.42963 13.5795 2.53309 13.7594C2.63655 13.9393 2.78536 14.089 2.96467 14.1935L8.60529 17.4762C8.87713 17.6341 9.18595 17.7174 9.50037 17.7174C9.81479 17.7174 10.1236 17.6341 10.3954 17.4762L16.0361 14.1935C16.2152 14.0889 16.3639 13.9392 16.4672 13.7593C16.5706 13.5794 16.625 13.3756 16.625 13.1681Z" stroke="#2D2D2D" stroke-width="1.1875" stroke-linecap="round" stroke-linejoin="round"/>
<path d="M2.56055 6.21436L9.5 10.2964M9.5 10.2964L16.4395 6.21436M9.5 10.2964V17.7183" stroke="#2D2D2D" stroke-width="1.1875" stroke-linecap="round" stroke-linejoin="round"/>
<path d="M9.5 6.73438C9.99188 6.73438 10.3906 6.46854 10.3906 6.14062C10.3906 5.81271 9.99188 5.54688 9.5 5.54688C9.00812 5.54688 8.60938 5.81271 8.60938 6.14062C8.60938 6.46854 9.00812 6.73438 9.5 6.73438Z" fill="#2D2D2D"/>
<path d="M7.71875 12.375C8.04667 12.375 8.3125 11.9763 8.3125 11.4844C8.3125 10.9925 8.04667 10.5938 7.71875 10.5938C7.39083 10.5938 7.125 10.9925 7.125 11.4844C7.125 11.9763 7.39083 12.375 7.71875 12.375Z" fill="#2D2D2D"/>
<path d="M4.15625 13.5625C4.48417 13.5625 4.75 13.1638 4.75 12.6719C4.75 12.18 4.48417 11.7812 4.15625 11.7812C3.82833 11.7812 3.5625 12.18 3.5625 12.6719C3.5625 13.1638 3.82833 13.5625 4.15625 13.5625Z" fill="#2D2D2D"/>
<path d="M11.2812 12.375C11.6092 12.375 11.875 11.9763 11.875 11.4844C11.875 10.9925 11.6092 10.5938 11.2812 10.5938C10.9533 10.5938 10.6875 10.9925 10.6875 11.4844C10.6875 11.9763 10.9533 12.375 11.2812 12.375Z" fill="#2D2D2D"/>
<path d="M14.8438 10.2969C15.1717 10.2969 15.4375 9.89813 15.4375 9.40625C15.4375 8.91437 15.1717 8.51562 14.8438 8.51562C14.5158 8.51562 14.25 8.91437 14.25 9.40625C14.25 9.89813 14.5158 10.2969 14.8438 10.2969Z" fill="#2D2D2D"/>
<path d="M11.2812 15.6406C11.6092 15.6406 11.875 15.2419 11.875 14.75C11.875 14.2581 11.6092 13.8594 11.2812 13.8594C10.9533 13.8594 10.6875 14.2581 10.6875 14.75C10.6875 15.2419 10.9533 15.6406 11.2812 15.6406Z" fill="#2D2D2D"/>
<path d="M14.8438 13.5625C15.1717 13.5625 15.4375 13.1638 15.4375 12.6719C15.4375 12.18 15.1717 11.7812 14.8438 11.7812C14.5158 11.7812 14.25 12.18 14.25 12.6719C14.25 13.1638 14.5158 13.5625 14.8438 13.5625Z" fill="#2D2D2D"/>
</svg>
