<svg width="19" height="20" viewBox="0 0 19 20" fill="none" xmlns="http://www.w3.org/2000/svg">
<path d="M15.1034 5.25H6.86511C5.6969 5.25 4.74988 6.19702 4.74988 7.36523V15.6035C4.74988 16.7717 5.6969 17.7187 6.86511 17.7187H15.1034C16.2716 17.7187 17.2186 16.7717 17.2186 15.6035V7.36523C17.2186 6.19702 16.2716 5.25 15.1034 5.25Z" stroke="#2D2D2D" stroke-width="1.18812" stroke-linejoin="round"/>
<path d="M14.2316 5.25L14.2501 4.35937C14.2486 3.8087 14.0291 3.28103 13.6397 2.89165C13.2503 2.50226 12.7227 2.28282 12.172 2.28125H4.15637C3.52705 2.28311 2.92404 2.53393 2.47905 2.97893C2.03405 3.42392 1.78323 4.02693 1.78137 4.65625V12.6719C1.78294 13.2225 2.00239 13.7502 2.39177 14.1396C2.78116 14.529 3.30883 14.7484 3.8595 14.75H4.75012" stroke="#2D2D2D" stroke-width="1.18812" stroke-linecap="round" stroke-linejoin="round"/>
</svg>
