<svg width="19" height="20" viewBox="0 0 19 20" fill="none" xmlns="http://www.w3.org/2000/svg">
<path d="M11.2812 12.9687V14.4531C11.2812 14.8468 11.1249 15.2244 10.8465 15.5027C10.5681 15.7811 10.1906 15.9375 9.79688 15.9375H3.85938C3.46569 15.9375 3.08814 15.7811 2.80976 15.5027C2.53139 15.2244 2.375 14.8468 2.375 14.4531V5.54687C2.375 5.15319 2.53139 4.77564 2.80976 4.49726C3.08814 4.21889 3.46569 4.0625 3.85938 4.0625H9.5C10.3197 4.0625 11.2812 4.72713 11.2812 5.54687V7.03125M13.6562 12.9687L16.625 10L13.6562 7.03125M6.53125 10H16.0312" stroke="#2D2D2D" stroke-width="1.1875" stroke-linecap="round" stroke-linejoin="round"/>
</svg>
