<svg width="664" height="664" viewBox="0 0 664 664" fill="none" xmlns="http://www.w3.org/2000/svg">
<g clip-path="url(#clip0_24_84)">
<path d="M664 0H0V664H664V0Z" fill="white"/>
<path d="M342.9 316.915C336.272 321.223 327.728 321.223 321.1 316.915L245.74 267.931C225.687 254.897 203.81 281.674 220.581 298.725L317.741 397.504C325.578 405.471 338.422 405.471 346.258 397.504L443.418 298.725C460.189 281.674 438.313 254.897 418.26 267.931L342.9 316.915Z" fill="#6868FF"/>
<path d="M443.86 207.777C449.532 216.851 447.056 228.781 438.242 234.85L343.342 300.191C336.512 304.894 327.488 304.894 320.658 300.191L225.758 234.85C216.944 228.781 214.468 216.851 220.14 207.777L236.843 181.052C243.606 170.231 258.636 168.425 267.769 177.336L318.034 226.374C325.802 233.953 338.198 233.953 345.967 226.374L396.231 177.336C405.364 168.425 420.394 170.231 427.157 181.052L443.86 207.777Z" fill="#DC79FF"/>
<path d="M170.637 446.758V453.227C167.481 450.586 164.216 449.266 160.841 449.266C157.122 449.266 153.989 450.602 151.442 453.273C148.88 455.93 147.598 459.18 147.598 463.023C147.598 466.82 148.88 470.023 151.442 472.633C154.005 475.242 157.145 476.547 160.864 476.547C162.786 476.547 164.419 476.234 165.762 475.609C166.512 475.297 167.286 474.875 168.083 474.344C168.895 473.812 169.747 473.172 170.637 472.422V479.008C167.512 480.773 164.231 481.656 160.794 481.656C155.622 481.656 151.208 479.852 147.552 476.242C143.911 472.602 142.091 468.211 142.091 463.07C142.091 458.461 143.614 454.352 146.661 450.742C150.411 446.32 155.262 444.109 161.216 444.109C164.466 444.109 167.606 444.992 170.637 446.758ZM178.944 441.414H184.217V460.07C186.092 458.383 188.162 457.539 190.428 457.539C193.006 457.539 195.069 458.375 196.616 460.047C197.928 461.5 198.584 463.82 198.584 467.008V481H193.311V467.5C193.311 465.672 192.983 464.352 192.327 463.539C191.686 462.711 190.647 462.297 189.209 462.297C187.366 462.297 186.069 462.867 185.319 464.008C184.584 465.164 184.217 467.148 184.217 469.961V481H178.944V441.414ZM224.516 458.172H229.812V481H224.516V478.609C222.344 480.641 220.008 481.656 217.508 481.656C214.352 481.656 211.742 480.516 209.68 478.234C207.633 475.906 206.609 473 206.609 469.516C206.609 466.094 207.633 463.242 209.68 460.961C211.727 458.68 214.289 457.539 217.367 457.539C220.023 457.539 222.406 458.633 224.516 460.82V458.172ZM212 469.516C212 471.703 212.586 473.484 213.758 474.859C214.961 476.25 216.477 476.945 218.305 476.945C220.258 476.945 221.836 476.273 223.039 474.93C224.242 473.539 224.844 471.773 224.844 469.633C224.844 467.492 224.242 465.727 223.039 464.336C221.836 462.977 220.273 462.297 218.352 462.297C216.539 462.297 215.023 462.984 213.805 464.359C212.602 465.75 212 467.469 212 469.516ZM238.869 458.172H244.142V460.211C245.111 459.195 245.97 458.5 246.72 458.125C247.486 457.734 248.392 457.539 249.439 457.539C250.83 457.539 252.283 457.992 253.798 458.898L251.384 463.727C250.384 463.008 249.408 462.648 248.455 462.648C245.58 462.648 244.142 464.82 244.142 469.164V481H238.869V458.172ZM265.245 458.172V481H259.972V458.172H265.245ZM259.175 448.68C259.175 447.758 259.511 446.961 260.183 446.289C260.855 445.617 261.659 445.281 262.597 445.281C263.55 445.281 264.362 445.617 265.034 446.289C265.706 446.945 266.042 447.75 266.042 448.703C266.042 449.656 265.706 450.469 265.034 451.141C264.378 451.812 263.573 452.148 262.62 452.148C261.667 452.148 260.855 451.812 260.183 451.141C259.511 450.469 259.175 449.648 259.175 448.68ZM279.762 463.094V481H274.489V463.094H272.239V458.172H274.489V449.805H279.762V458.172H283.864V463.094H279.762ZM297.045 476.758L286.78 458.172H292.897L299.881 471.297L306.397 458.172H312.35L294.162 493.422H288.139L297.045 476.758ZM363.322 446.758V453.227C360.166 450.586 356.9 449.266 353.525 449.266C349.806 449.266 346.673 450.602 344.127 453.273C341.564 455.93 340.283 459.18 340.283 463.023C340.283 466.82 341.564 470.023 344.127 472.633C346.689 475.242 349.83 476.547 353.548 476.547C355.47 476.547 357.103 476.234 358.447 475.609C359.197 475.297 359.97 474.875 360.767 474.344C361.58 473.812 362.431 473.172 363.322 472.422V479.008C360.197 480.773 356.916 481.656 353.478 481.656C348.306 481.656 343.892 479.852 340.236 476.242C336.595 472.602 334.775 468.211 334.775 463.07C334.775 458.461 336.298 454.352 339.345 450.742C343.095 446.32 347.947 444.109 353.9 444.109C357.15 444.109 360.291 444.992 363.322 446.758ZM370.55 469.422C370.55 466.125 371.73 463.32 374.089 461.008C376.448 458.695 379.323 457.539 382.714 457.539C386.12 457.539 389.011 458.703 391.386 461.031C393.73 463.359 394.902 466.219 394.902 469.609C394.902 473.031 393.722 475.898 391.363 478.211C388.988 480.508 386.073 481.656 382.62 481.656C379.198 481.656 376.331 480.484 374.019 478.141C371.706 475.828 370.55 472.922 370.55 469.422ZM375.941 469.516C375.941 471.797 376.55 473.602 377.769 474.93C379.019 476.273 380.667 476.945 382.714 476.945C384.777 476.945 386.425 476.281 387.659 474.953C388.894 473.625 389.511 471.852 389.511 469.633C389.511 467.414 388.894 465.641 387.659 464.312C386.409 462.969 384.761 462.297 382.714 462.297C380.698 462.297 379.066 462.969 377.816 464.312C376.566 465.656 375.941 467.391 375.941 469.516ZM402.903 458.172H408.2V460.281C410.044 458.453 412.122 457.539 414.434 457.539C417.091 457.539 419.161 458.375 420.645 460.047C421.927 461.469 422.567 463.789 422.567 467.008V481H417.27V468.25C417.27 466 416.958 464.445 416.333 463.586C415.723 462.711 414.614 462.273 413.005 462.273C411.255 462.273 410.013 462.852 409.278 464.008C408.559 465.148 408.2 467.141 408.2 469.984V481H402.903V458.172ZM431.647 458.172H436.944V460.281C438.787 458.453 440.866 457.539 443.178 457.539C445.834 457.539 447.905 458.375 449.389 460.047C450.67 461.469 451.311 463.789 451.311 467.008V481H446.014V468.25C446.014 466 445.702 464.445 445.077 463.586C444.467 462.711 443.358 462.273 441.748 462.273C439.998 462.273 438.756 462.852 438.022 464.008C437.303 465.148 436.944 467.141 436.944 469.984V481H431.647V458.172ZM481.18 470.828H464.82C464.961 472.703 465.57 474.195 466.648 475.305C467.727 476.398 469.109 476.945 470.797 476.945C472.109 476.945 473.195 476.633 474.055 476.008C474.898 475.383 475.859 474.227 476.938 472.539L481.391 475.023C480.703 476.195 479.977 477.203 479.211 478.047C478.445 478.875 477.625 479.562 476.75 480.109C475.875 480.641 474.93 481.031 473.914 481.281C472.898 481.531 471.797 481.656 470.609 481.656C467.203 481.656 464.469 480.562 462.406 478.375C460.344 476.172 459.312 473.25 459.312 469.609C459.312 466 460.312 463.078 462.312 460.844C464.328 458.641 467 457.539 470.328 457.539C473.688 457.539 476.344 458.609 478.297 460.75C480.234 462.875 481.203 465.82 481.203 469.586L481.18 470.828ZM475.766 466.516C475.031 463.703 473.258 462.297 470.445 462.297C469.805 462.297 469.203 462.398 468.641 462.602C468.078 462.789 467.562 463.07 467.094 463.445C466.641 463.805 466.25 464.242 465.922 464.758C465.594 465.273 465.344 465.859 465.172 466.516H475.766ZM507.134 459.156V466.164C505.931 464.695 504.853 463.688 503.9 463.141C502.963 462.578 501.861 462.297 500.595 462.297C498.611 462.297 496.963 462.992 495.65 464.383C494.338 465.773 493.681 467.516 493.681 469.609C493.681 471.75 494.314 473.508 495.58 474.883C496.861 476.258 498.494 476.945 500.478 476.945C501.744 476.945 502.861 476.672 503.83 476.125C504.767 475.594 505.869 474.562 507.134 473.031V479.992C504.994 481.102 502.853 481.656 500.713 481.656C497.181 481.656 494.228 480.516 491.853 478.234C489.478 475.938 488.291 473.086 488.291 469.68C488.291 466.273 489.494 463.398 491.9 461.055C494.306 458.711 497.259 457.539 500.759 457.539C503.009 457.539 505.134 458.078 507.134 459.156ZM520.081 463.094V481H514.808V463.094H512.558V458.172H514.808V449.805H520.081V458.172H524.183V463.094H520.081Z" fill="#6868FF"/>
</g>
<defs>
<clipPath id="clip0_24_84">
<rect width="664" height="664" fill="white"/>
</clipPath>
</defs>
</svg>
