<svg width="28" height="28" viewBox="0 0 28 28" fill="none" xmlns="http://www.w3.org/2000/svg">
<path d="M13.563 3.5C8.0062 3.5 3.50049 8.00572 3.50049 13.5625C3.50049 19.1193 8.0062 23.6251 13.563 23.6251C19.1198 23.6251 23.6255 19.1193 23.6255 13.5625C23.6255 8.00572 19.1198 3.5 13.563 3.5Z" stroke="#6868FF" stroke-width="1.75001" stroke-miterlimit="10"/>
<path d="M12.0327 12.0312H13.7827V18.375" stroke="#6868FF" stroke-width="1.75001" stroke-linecap="round" stroke-linejoin="round"/>
<path d="M11.3755 18.5939H16.188" stroke="#6868FF" stroke-width="1.75001" stroke-miterlimit="10" stroke-linecap="round"/>
<path d="M13.563 7.10938C13.2818 7.10938 13.0069 7.19277 12.773 7.349C12.5392 7.50524 12.357 7.72731 12.2493 7.98712C12.1417 8.24694 12.1136 8.53283 12.1684 8.80865C12.2233 9.08447 12.3587 9.33782 12.5576 9.53667C12.7564 9.73553 13.0098 9.87095 13.2856 9.92581C13.5614 9.98068 13.8473 9.95252 14.1071 9.8449C14.3669 9.73728 14.589 9.55503 14.7452 9.32121C14.9015 9.08738 14.9849 8.81248 14.9849 8.53125C14.9849 8.15415 14.8351 7.79249 14.5684 7.52583C14.3018 7.25918 13.9401 7.10938 13.563 7.10938Z" fill="#6868FF"/>
</svg>
