<svg width="22" height="23" viewBox="0 0 22 23" fill="none" xmlns="http://www.w3.org/2000/svg">
<g clip-path="url(#clip0_574_2404)">
<path d="M10.0833 16.6905H11.9167V14.8571H10.0833V16.6905ZM11 2.0238C5.94001 2.0238 1.83334 6.13047 1.83334 11.1905C1.83334 16.2505 5.94001 20.3571 11 20.3571C16.06 20.3571 20.1667 16.2505 20.1667 11.1905C20.1667 6.13047 16.06 2.0238 11 2.0238ZM11 18.5238C6.95751 18.5238 3.66668 15.233 3.66668 11.1905C3.66668 7.14797 6.95751 3.85714 11 3.85714C15.0425 3.85714 18.3333 7.14797 18.3333 11.1905C18.3333 15.233 15.0425 18.5238 11 18.5238ZM11 5.69047C8.97418 5.69047 7.33334 7.3313 7.33334 9.35714H9.16668C9.16668 8.3488 9.99168 7.5238 11 7.5238C12.0083 7.5238 12.8333 8.3488 12.8333 9.35714C12.8333 11.1905 10.0833 10.9613 10.0833 13.9405H11.9167C11.9167 11.878 14.6667 11.6488 14.6667 9.35714C14.6667 7.3313 13.0258 5.69047 11 5.69047Z" fill="#6868FF"/>
</g>
<defs>
<clipPath id="clip0_574_2404">
<rect width="22" height="22" fill="white" transform="translate(0 0.190491)"/>
</clipPath>
</defs>
</svg>
